<svg xmlns="http://www.w3.org/2000/svg" width="1440" height="960" viewBox="0 0 1440 960"><rect x="0" y="0" width="1440" height="960" rx="0" fill="#F4FAF8" /><rect x="0" y="0" width="240" height="960" rx="0" fill="#FFFFFF" /><line x1="240" y1="0" x2="240" y2="960" stroke="#E2EEEA" stroke-width="1"/><g transform="translate(28 28) scale(0.65625)">
    <rect width="64" height="64" rx="20" fill="#F1FBF7"/>
    <path d="M15 23c0-4 3-7 7-7h25a4 4 0 0 1 4 4v27H22c-4 0-7-3-7-7V23Z" fill="#0B6B58"/>
    <path d="M39 27h14v12H39a6 6 0 0 1 0-12Z" fill="#16A085"/>
    <circle cx="42" cy="33" r="2.5" fill="white"/>
    <path d="M24 24h16" stroke="#D8F3EA" stroke-width="3" stroke-linecap="round"/>
  </g><text x="82" y="57" font-family="Manrope, Arial, sans-serif" font-size="21" font-weight="700" fill="#102A27" text-anchor="start" >PagaTo’</text><svg x="40" y="111" width="20" height="20" viewBox="0 0 20 20" color="#647773" xmlns="http://www.w3.org/2000/svg"><path d="M3 10.5 10 4l7 6.5V18H5v-7.5Z" fill="none" stroke="currentColor" stroke-width="1.8" stroke-linejoin="round"/><path d="M8 18v-5h4v5" fill="none" stroke="currentColor" stroke-width="1.8"/></svg><text x="74" y="125" font-family="Manrope, Arial, sans-serif" font-size="14" font-weight="450" fill="#647773" text-anchor="start" >Dashboard</text><svg x="40" y="169" width="20" height="20" viewBox="0 0 20 20" color="#647773" xmlns="http://www.w3.org/2000/svg"><path d="M4 7h12M13 4l3 3-3 3M16 13H4M7 10l-3 3 3 3" fill="none" stroke="currentColor" stroke-width="1.8" stroke-linecap="round" stroke-linejoin="round"/></svg><text x="74" y="183" font-family="Manrope, Arial, sans-serif" font-size="14" font-weight="450" fill="#647773" text-anchor="start" >Transacciones</text><rect x="24" y="213" width="192" height="48" rx="12" fill="#D8F3EA" /><svg x="40" y="227" width="20" height="20" viewBox="0 0 20 20" color="#0B6B58" xmlns="http://www.w3.org/2000/svg"><path d="M3 6h14v11H3V6Zm0 2h12" fill="none" stroke="currentColor" stroke-width="1.8" stroke-linejoin="round"/><path d="M13 10h5v4h-5a2 2 0 1 1 0-4Z" fill="none" stroke="currentColor" stroke-width="1.8"/></svg><text x="74" y="241" font-family="Manrope, Arial, sans-serif" font-size="14" font-weight="650" fill="#0B6B58" text-anchor="start" >Cuentas</text><svg x="40" y="285" width="20" height="20" viewBox="0 0 20 20" color="#647773" xmlns="http://www.w3.org/2000/svg"><circle cx="10" cy="10" r="7" fill="none" stroke="currentColor" stroke-width="1.8"/><path d="M10 3v7h7" fill="none" stroke="currentColor" stroke-width="1.8"/></svg><text x="74" y="299" font-family="Manrope, Arial, sans-serif" font-size="14" font-weight="450" fill="#647773" text-anchor="start" >Presupuestos</text><svg x="40" y="343" width="20" height="20" viewBox="0 0 20 20" color="#647773" xmlns="http://www.w3.org/2000/svg"><circle cx="10" cy="10" r="3" fill="none" stroke="currentColor" stroke-width="1.8"/><path d="M10 2v2M10 16v2M2 10h2M16 10h2M4.4 4.4l1.4 1.4M14.2 14.2l1.4 1.4M15.6 4.4l-1.4 1.4M5.8 14.2l-1.4 1.4" fill="none" stroke="currentColor" stroke-width="1.8" stroke-linecap="round"/></svg><text x="74" y="357" font-family="Manrope, Arial, sans-serif" font-size="14" font-weight="450" fill="#647773" text-anchor="start" >Configuración</text><line x1="24" y1="840" x2="216" y2="840" stroke="#E2EEEA" stroke-width="1"/><circle cx="48" cy="884" r="20" fill="#D8F3EA"/><text x="48" y="889" font-family="Manrope, Arial, sans-serif" font-size="11" font-weight="700" fill="#0B6B58" text-anchor="middle" >AC</text><text x="78" y="879" font-family="Manrope, Arial, sans-serif" font-size="12" font-weight="650" fill="#102A27" text-anchor="start" >Angel Concepción</text><text x="78" y="898" font-family="Manrope, Arial, sans-serif" font-size="10" font-weight="400" fill="#647773" text-anchor="start" >Cuenta personal</text><text x="280" y="66" font-family="Manrope, Arial, sans-serif" font-size="30" font-weight="750" fill="#102A27" text-anchor="start" >Cuentas</text><text x="280" y="94" font-family="Manrope, Arial, sans-serif" font-size="14" font-weight="400" fill="#647773" text-anchor="start" >Organiza tu dinero por cuenta y propósito.</text><rect x="1180" y="42" width="212" height="50" rx="14" fill="#16A085" /><svg x="1200" y="57" width="20" height="20" viewBox="0 0 20 20" color="#FFFFFF" xmlns="http://www.w3.org/2000/svg"><path d="M10 4v12M4 10h12" fill="none" stroke="currentColor" stroke-width="2" stroke-linecap="round"/></svg><text x="1230" y="73" font-family="Manrope, Arial, sans-serif" font-size="13" font-weight="650" fill="#FFFFFF" text-anchor="start" >Nueva cuenta</text><text x="280" y="150" font-family="Manrope, Arial, sans-serif" font-size="13" font-weight="450" fill="#647773" text-anchor="start" >Patrimonio total</text><text x="280" y="196" font-family="Manrope, Arial, sans-serif" font-size="38" font-weight="750" fill="#102A27" text-anchor="start" >RD$ 128,450.00</text><text x="280" y="224" font-family="Manrope, Arial, sans-serif" font-size="12" font-weight="450" fill="#647773" text-anchor="start" >4 cuentas activas</text><rect x="280" y="270" width="524" height="176" rx="20" fill="#FFFFFF" stroke="#E2EEEA"/><rect x="302" y="292" width="54" height="54" rx="16" fill="#0B6B58" /><svg x="319" y="309" width="20" height="20" viewBox="0 0 20 20" color="#FFFFFF" xmlns="http://www.w3.org/2000/svg"><path d="M3 6h14v11H3V6Zm0 2h12" fill="none" stroke="currentColor" stroke-width="1.8" stroke-linejoin="round"/><path d="M13 10h5v4h-5a2 2 0 1 1 0-4Z" fill="none" stroke="currentColor" stroke-width="1.8"/></svg><text x="376" y="318" font-family="Manrope, Arial, sans-serif" font-size="17" font-weight="700" fill="#102A27" text-anchor="start" >Cuenta principal</text><text x="376" y="342" font-family="Manrope, Arial, sans-serif" font-size="12" font-weight="400" fill="#647773" text-anchor="start" >Banco Popular</text><text x="302" y="402" font-family="Manrope, Arial, sans-serif" font-size="26" font-weight="750" fill="#102A27" text-anchor="start" >RD$ 82,400</text><text x="754" y="402" font-family="Manrope, Arial, sans-serif" font-size="14" font-weight="700" fill="#647773" text-anchor="end" >•••</text><rect x="836" y="270" width="524" height="176" rx="20" fill="#FFFFFF" stroke="#E2EEEA"/><rect x="858" y="292" width="54" height="54" rx="16" fill="#16A085" /><svg x="875" y="309" width="20" height="20" viewBox="0 0 20 20" color="#FFFFFF" xmlns="http://www.w3.org/2000/svg"><path d="M3 6h14v11H3V6Zm0 2h12" fill="none" stroke="currentColor" stroke-width="1.8" stroke-linejoin="round"/><path d="M13 10h5v4h-5a2 2 0 1 1 0-4Z" fill="none" stroke="currentColor" stroke-width="1.8"/></svg><text x="932" y="318" font-family="Manrope, Arial, sans-serif" font-size="17" font-weight="700" fill="#102A27" text-anchor="start" >Cuenta de ahorro</text><text x="932" y="342" font-family="Manrope, Arial, sans-serif" font-size="12" font-weight="400" fill="#647773" text-anchor="start" >Banreservas</text><text x="858" y="402" font-family="Manrope, Arial, sans-serif" font-size="26" font-weight="750" fill="#102A27" text-anchor="start" >RD$ 34,200</text><text x="1310" y="402" font-family="Manrope, Arial, sans-serif" font-size="14" font-weight="700" fill="#647773" text-anchor="end" >•••</text><rect x="280" y="480" width="524" height="176" rx="20" fill="#FFFFFF" stroke="#E2EEEA"/><rect x="302" y="502" width="54" height="54" rx="16" fill="#3B6F68" /><svg x="319" y="519" width="20" height="20" viewBox="0 0 20 20" color="#FFFFFF" xmlns="http://www.w3.org/2000/svg"><path d="M3 6h14v11H3V6Zm0 2h12" fill="none" stroke="currentColor" stroke-width="1.8" stroke-linejoin="round"/><path d="M13 10h5v4h-5a2 2 0 1 1 0-4Z" fill="none" stroke="currentColor" stroke-width="1.8"/></svg><text x="376" y="528" font-family="Manrope, Arial, sans-serif" font-size="17" font-weight="700" fill="#102A27" text-anchor="start" >Tarjeta Visa</text><text x="376" y="552" font-family="Manrope, Arial, sans-serif" font-size="12" font-weight="400" fill="#647773" text-anchor="start" >Crédito disponible</text><text x="302" y="612" font-family="Manrope, Arial, sans-serif" font-size="26" font-weight="750" fill="#102A27" text-anchor="start" >RD$ 8,850</text><text x="754" y="612" font-family="Manrope, Arial, sans-serif" font-size="14" font-weight="700" fill="#647773" text-anchor="end" >•••</text><rect x="836" y="480" width="524" height="176" rx="20" fill="#FFFFFF" stroke="#E2EEEA"/><rect x="858" y="502" width="54" height="54" rx="16" fill="#7AB5A5" /><svg x="875" y="519" width="20" height="20" viewBox="0 0 20 20" color="#FFFFFF" xmlns="http://www.w3.org/2000/svg"><path d="M3 6h14v11H3V6Zm0 2h12" fill="none" stroke="currentColor" stroke-width="1.8" stroke-linejoin="round"/><path d="M13 10h5v4h-5a2 2 0 1 1 0-4Z" fill="none" stroke="currentColor" stroke-width="1.8"/></svg><text x="932" y="528" font-family="Manrope, Arial, sans-serif" font-size="17" font-weight="700" fill="#102A27" text-anchor="start" >Efectivo</text><text x="932" y="552" font-family="Manrope, Arial, sans-serif" font-size="12" font-weight="400" fill="#647773" text-anchor="start" >Billetera</text><text x="858" y="612" font-family="Manrope, Arial, sans-serif" font-size="26" font-weight="750" fill="#102A27" text-anchor="start" >RD$ 3,000</text><text x="1310" y="612" font-family="Manrope, Arial, sans-serif" font-size="14" font-weight="700" fill="#647773" text-anchor="end" >•••</text><rect x="280" y="714" width="1080" height="164" rx="20" fill="#FFFFFF" /><text x="304" y="752" font-family="Manrope, Arial, sans-serif" font-size="18" font-weight="700" fill="#102A27" text-anchor="start" >Distribución por cuenta</text><rect x="304" y="786" width="1032" height="10" rx="5" fill="#D8F3EA" /><rect x="304" y="786" width="660.48" height="10" rx="5" fill="#0B6B58" /><text x="304" y="828" font-family="Manrope, Arial, sans-serif" font-size="12" font-weight="600" fill="#0B6B58" text-anchor="start" >Cuenta principal · 64%</text><text x="1360" y="828" font-family="Manrope, Arial, sans-serif" font-size="12" font-weight="450" fill="#647773" text-anchor="end" >Ahorro 27% · Otros 9%</text></svg>